<?xml version="1.0" encoding="UTF-8" standalone="no"?>
<svg
   xmlns:dc="http://purl.org/dc/elements/1.1/"
   xmlns:cc="http://creativecommons.org/ns#"
   xmlns:rdf="http://www.w3.org/1999/02/22-rdf-syntax-ns#"
   xmlns:svg="http://www.w3.org/2000/svg"
   xmlns="http://www.w3.org/2000/svg"
   xmlns:sodipodi="http://sodipodi.sourceforge.net/DTD/sodipodi-0.dtd"
   xmlns:inkscape="http://www.inkscape.org/namespaces/inkscape"
   width="210mm"
   height="297mm"
   viewBox="0 0 210 297"
   version="1.1"
   id="svg8"
   inkscape:version="1.0.2 (e86c870879, 2021-01-15)"
   sodipodi:docname="logo.svg">
  <defs
     id="defs2">
    <rect
       x="86.520076"
       y="157.04922"
       width="25.645966"
       height="26.509446"
       id="rect18" />
    <rect
       x="72.235944"
       y="151.42023"
       width="24.725115"
       height="27.554209"
       id="rect12" />
  </defs>
  <sodipodi:namedview
     id="base"
     pagecolor="#ffffff"
     bordercolor="#666666"
     borderopacity="1.0"
     inkscape:pageopacity="0.0"
     inkscape:pageshadow="2"
     inkscape:zoom="1.4"
     inkscape:cx="192.60262"
     inkscape:cy="667.68136"
     inkscape:document-units="mm"
     inkscape:current-layer="g30"
     inkscape:document-rotation="0"
     showgrid="false"
     inkscape:window-width="1366"
     inkscape:window-height="731"
     inkscape:window-x="-4"
     inkscape:window-y="0"
     inkscape:window-maximized="0" />
  <metadata
     id="metadata5">
    <rdf:RDF>
      <cc:Work
         rdf:about="">
        <dc:format>image/svg+xml</dc:format>
        <dc:type
           rdf:resource="http://purl.org/dc/dcmitype/StillImage" />
        <dc:title />
      </cc:Work>
    </rdf:RDF>
  </metadata>
  <g
     inkscape:label="Layer 1"
     inkscape:groupmode="layer"
     id="layer1">
    <text
       xml:space="preserve"
       id="text16"
       style="fill:black;fill-opacity:1;line-height:1.25;stroke:none;font-family:sans-serif;font-style:normal;font-weight:normal;font-size:10.58333333px;white-space:pre;shape-inside:url(#rect18);" />
    <g
       id="g30"
       transform="translate(12.306924,-0.67269623)">
      <g
         id="g46"
         inkscape:export-xdpi="97.169998"
         inkscape:export-ydpi="97.169998">
        <path
           id="rect30"
           style="fill:#ffffff;fill-rule:evenodd;stroke-width:3.02952;stroke-linejoin:round"
           d="m 68.343079,169.7897 h 15.982 v 3.8756 h -15.982 z" />
        <g
           id="g893"
           inkscape:export-xdpi="97.169998"
           inkscape:export-ydpi="97.169998"
           transform="matrix(0.99998359,0,0,1,0.00112475,0)">
          <g
             id="g882"
             transform="translate(-0.34016479,-0.10395813)">
            <path
               id="rect869"
               style="fill:#000000;fill-opacity:1;fill-rule:evenodd;stroke-width:3;stroke-linejoin:round"
               d="m 68.883621,154.30336 h 15.640201 v 15.6402 H 68.883621 Z" />
            <g
               id="g867"
               transform="translate(-20.679171,-4.6682783)"
               style="fill:#ffffff;fill-opacity:1">
              <path
                 d="m 75.982816,153.61066 h 2.529409 v -0.86783 h -6.053648 v 0.86783 h 2.539992 v 6.8474 h 0.984247 z"
                 id="path32"
                 style="font-style:normal;font-weight:normal;font-size:10.5833px;line-height:1.25;font-family:sans-serif;white-space:pre;shape-inside:url(#rect12);fill:#ffffff;fill-opacity:1;stroke:none"
                 transform="translate(18.715728,8.0912774)" />
              <g
                 aria-label="D"
                 id="text24"
                 style="font-style:normal;font-weight:normal;font-size:10.5833px;line-height:1.25;font-family:sans-serif;fill:#ffffff;fill-opacity:1;stroke:none;stroke-width:0.264583"
                 transform="translate(8.2025032,-0.51662014)">
                <path
                   d="m 89.27183,173.26599 h 2.973907 c 1.947327,0 3.14324,-1.4605 3.14324,-3.86291 0,-2.39183 -1.185329,-3.85232 -3.14324,-3.85232 H 89.27183 Z m 0.984247,-0.86784 v -5.97956 h 1.820327 c 1.523995,0 2.328326,1.02658 2.328326,2.99507 0,1.95791 -0.804331,2.98449 -2.328326,2.98449 z"
                   style="fill:#ffffff;fill-opacity:1;stroke-width:0.264583"
                   id="path35" />
              </g>
            </g>
          </g>
          <path
             id="rect871"
             style="fill:#ffffff;fill-opacity:1;fill-rule:evenodd;stroke-width:3.16411;stroke-linejoin:round"
             d="m 68.883621,169.8396 h 15.642098 v 2.01076 H 68.883621 Z" />
          <g
             aria-label="Todo List App"
             id="text875"
             style="font-style:normal;font-weight:normal;font-size:2.46944px;line-height:1.25;font-family:sans-serif;fill:#000000;fill-opacity:1;stroke:none;stroke-width:0.264583">
            <path
               d="m 69.757803,170.25264 h 0.590196 v -0.20249 h -1.41252 v 0.20249 h 0.592666 v 1.59773 h 0.229658 z"
               style="font-size:2.46944px;stroke-width:0.264583"
               id="path51" />
            <path
               d="m 70.839409,170.51934 c -0.365477,0 -0.582787,0.2593 -0.582787,0.69392 0,0.43709 0.21731,0.69391 0.585257,0.69391 0.365477,0 0.585257,-0.25929 0.585257,-0.68404 0,-0.44943 -0.212372,-0.70379 -0.587727,-0.70379 z m 0.0025,0.19015 c 0.232127,0 0.370416,0.19015 0.370416,0.51118 0,0.30621 -0.143228,0.49635 -0.370416,0.49635 -0.229658,0 -0.370416,-0.19014 -0.370416,-0.50376 0,-0.31362 0.140758,-0.50377 0.370416,-0.50377 z"
               style="font-size:2.46944px;stroke-width:0.264583"
               id="path53" />
            <path
               d="m 72.763103,170.05015 h -0.204964 v 0.66922 c -0.08643,-0.13088 -0.224719,-0.20003 -0.39758,-0.20003 -0.335844,0 -0.555624,0.26917 -0.555624,0.68157 0,0.43709 0.212372,0.70626 0.563033,0.70626 0.177799,0 0.301271,-0.0667 0.412396,-0.22719 v 0.17039 h 0.182739 z m -0.567972,0.66181 c 0.22225,0 0.363008,0.19509 0.363008,0.50624 0,0.2988 -0.143227,0.49635 -0.360538,0.49635 -0.227189,0 -0.377825,-0.20002 -0.377825,-0.50129 0,-0.30127 0.150636,-0.5013 0.375355,-0.5013 z"
               style="font-size:2.46944px;stroke-width:0.264583"
               id="path55" />
            <path
               d="m 73.585425,170.51934 c -0.365477,0 -0.582787,0.2593 -0.582787,0.69392 0,0.43709 0.21731,0.69391 0.585257,0.69391 0.365477,0 0.585257,-0.25929 0.585257,-0.68404 0,-0.44943 -0.212372,-0.70379 -0.587727,-0.70379 z m 0.0025,0.19015 c 0.232127,0 0.370416,0.19015 0.370416,0.51118 0,0.30621 -0.143228,0.49635 -0.370416,0.49635 -0.229658,0 -0.370416,-0.19014 -0.370416,-0.50376 0,-0.31362 0.140758,-0.50377 0.370416,-0.50377 z"
               style="font-size:2.46944px;stroke-width:0.264583"
               id="path57" />
            <path
               d="m 75.400463,170.05015 h -0.229658 v 1.80022 h 1.118656 v -0.20249 h -0.888998 z"
               style="font-size:2.46944px;stroke-width:0.264583"
               id="path59" />
            <path
               d="m 76.701856,170.55639 h -0.204964 v 1.29398 h 0.204964 z m 0,-0.50624 h -0.207433 v 0.25929 h 0.207433 z"
               style="font-size:2.46944px;stroke-width:0.264583"
               id="path61" />
            <path
               d="m 77.961266,170.91692 c -0.0025,-0.25435 -0.170392,-0.39758 -0.469194,-0.39758 -0.301271,0 -0.496357,0.15558 -0.496357,0.39511 0,0.2025 0.103716,0.29881 0.409927,0.37289 l 0.192616,0.0469 c 0.143228,0.0346 0.200025,0.0864 0.200025,0.1778 0,0.12347 -0.121003,0.20496 -0.301272,0.20496 -0.111125,0 -0.204963,-0.0321 -0.256822,-0.0864 -0.0321,-0.037 -0.04692,-0.0741 -0.05927,-0.16545 h -0.217311 c 0.0099,0.2988 0.1778,0.44203 0.516113,0.44203 0.325966,0 0.533399,-0.16051 0.533399,-0.40993 0,-0.19261 -0.108655,-0.2988 -0.365477,-0.36054 l -0.197555,-0.0469 c -0.167922,-0.0395 -0.239536,-0.0938 -0.239536,-0.1852 0,-0.12101 0.106186,-0.19509 0.274108,-0.19509 0.165452,0 0.254352,0.0716 0.259291,0.20743 z"
               style="font-size:2.46944px;stroke-width:0.264583"
               id="path63" />
            <path
               d="m 78.734195,170.55639 h -0.212372 v -0.3556 H 78.31686 v 0.3556 h -0.17533 v 0.16792 h 0.17533 v 0.9779 c 0,0.13335 0.0889,0.20496 0.249413,0.20496 0.05433,0 0.09878,-0.005 0.167922,-0.0173 v -0.17286 c -0.02963,0.007 -0.0568,0.01 -0.09878,0.01 -0.0889,0 -0.113595,-0.0247 -0.113595,-0.11606 v -0.88653 h 0.212372 z"
               style="font-size:2.46944px;stroke-width:0.264583"
               id="path65" />
            <path
               d="m 80.65048,171.30956 0.185208,0.54081 h 0.256822 l -0.632177,-1.80022 H 80.164 l -0.642054,1.80022 h 0.244474 l 0.190147,-0.54081 z m -0.06421,-0.19261 h -0.57291 l 0.296333,-0.81986 z"
               style="font-size:2.46944px;stroke-width:0.264583"
               id="path67" />
            <path
               d="m 81.260432,172.38871 h 0.207433 v -0.67416 c 0.108655,0.13335 0.229658,0.19262 0.397579,0.19262 0.335844,0 0.553155,-0.26917 0.553155,-0.68157 0,-0.43462 -0.212372,-0.70626 -0.555624,-0.70626 -0.17533,0 -0.316088,0.079 -0.412396,0.23213 v -0.19508 h -0.190147 z m 0.567971,-1.67675 c 0.227188,0 0.375355,0.20003 0.375355,0.50871 0,0.29386 -0.150636,0.49388 -0.375355,0.49388 -0.21978,0 -0.360538,-0.19755 -0.360538,-0.50129 0,-0.30374 0.140758,-0.5013 0.360538,-0.5013 z"
               style="font-size:2.46944px;stroke-width:0.264583"
               id="path69" />
            <path
               d="m 82.633439,172.38871 h 0.207433 v -0.67416 c 0.108656,0.13335 0.229658,0.19262 0.39758,0.19262 0.335844,0 0.553155,-0.26917 0.553155,-0.68157 0,-0.43462 -0.212372,-0.70626 -0.555624,-0.70626 -0.17533,0 -0.316089,0.079 -0.412397,0.23213 v -0.19508 h -0.190147 z m 0.567972,-1.67675 c 0.227188,0 0.375354,0.20003 0.375354,0.50871 0,0.29386 -0.150635,0.49388 -0.375354,0.49388 -0.219781,0 -0.360539,-0.19755 -0.360539,-0.50129 0,-0.30374 0.140758,-0.5013 0.360539,-0.5013 z"
               style="font-size:2.46944px;stroke-width:0.264583"
               id="path71" />
          </g>
        </g>
        <path
           id="rect32"
           style="fill:#ffffff;fill-rule:evenodd;stroke-width:3;stroke-linejoin:round"
           d="m 76.413345,174.32228 h 5.517521 v 0.34485 h -5.517521 z" />
      </g>
    </g>
  </g>
</svg>
